<svg width="181" height="181" viewBox="0 0 181 181" fill="none" xmlns="http://www.w3.org/2000/svg">
<g clip-path="url(#clip0_1_4)">
<rect width="181" height="181" fill="#FB1717"/>
<path d="M90.5 -12L99.8514 49.5287L134.973 -1.84931L116.702 57.6435L170.638 26.5923L128.363 72.266L190.43 67.6916L132.525 90.5L190.43 113.308L128.363 108.734L170.638 154.408L116.702 123.356L134.973 182.849L99.8514 131.471L90.5 193L81.1486 131.471L46.0269 182.849L64.2978 123.356L10.3623 154.408L52.6368 108.734L-9.43011 113.308L48.475 90.5L-9.43011 67.6916L52.6368 72.266L10.3623 26.5923L64.2978 57.6435L46.0269 -1.84931L81.1486 49.5287L90.5 -12Z" fill="white"/>
</g>
<defs>
<clipPath id="clip0_1_4">
<rect width="181" height="181" fill="white"/>
</clipPath>
</defs>
</svg>
